<svg xmlns="http://www.w3.org/2000/svg" viewBox="0 0 123 127" fill="#939CFF">
  <path d="M530 1109 c-211 -31 -353 -174 -397 -398 -14 -70 -15 -96 -5 -163 6 -43 21 -100 32 -125 19 -44 21 -45 34 -27 7 10 62 98 122 194 59 96 122 188 139 203 49 45 109 57 292 57 182 0 213 7 271 63 46 44 74 101 76 156 l1 46 -255 1 c-140 1 -280 -2 -310 -7z"/>
  <path d="M387 508 c-8 -13 -43 -68 -77 -122 l-62 -100 34 -28 c55 -46 144 -88 215 -103 89 -19 314 -20 375 -1 98 29 168 120 168 218 l0 48 -228 0 c-269 0 -311 8 -372 71 l-39 40 -14 -23z"/>
</svg>
